<svg version="1.1" id="Layer_1" xmlns="http://www.w3.org/2000/svg" xmlns:xlink="http://www.w3.org/1999/xlink" x="0px" y="0px"
	 width="841.889px" height="595.281px" viewBox="0 0 841.889 595.281" enable-background="new 0 0 841.889 595.281"
	 xml:space="preserve">

	<g id="iPHONE">
		<path id="SCREEN" fill="none" d="M511.459,53.201h-20.49c-4.386,0-5.967-0.071-6.255,5.465c-0.287,5.751-4.241,8.986-9.562,10.64c-1.798,0.575-3.811,0.432-5.752,0.432h-3.882h-86.848h-3.882c-1.941,0-3.954,0.216-5.752-0.359c-5.32-1.653-9.346-5.033-9.562-10.784c-0.288-5.536-1.869-5.393-6.255-5.393h-20.705c-12.653,0-22.287,10.065-22.287,22.647v440.924c0,12.582,9.634,22.431,22.215,22.431h179.016c12.581,0,23.077-9.921,23.077-22.431V75.848C534.536,63.266,524.04,53.201,511.459,53.201z"/>
		
		<g>
			<linearGradient id="LIGHT_OUTER_FRONT_1_" gradientUnits="userSpaceOnUse" x1="-47.8708" y1="421.8171" x2="457.1296" y2="-83.1833" gradientTransform="matrix(0.7189 0 0 -0.7189 274.1884 419.3685)">
				<stop  offset="0" style="stop-color:#CCCCCC"/>
				<stop  offset="1" style="stop-color:#808080"/>
			</linearGradient>
			<path id="LIGHT_OUTER_FRONT" fill="url(#LIGHT_OUTER_FRONT_1_)" d="M548.197,76.998c0-20.705-16.751-37.456-37.457-37.456H331.868c-20.705,0-37.457,16.751-37.457,37.456v441.284c0,20.706,16.752,37.457,37.457,37.457H510.74c20.706,0,37.457-16.751,37.457-37.457V76.998z M542.446,517.923c0,17.687-14.379,32.064-32.065,32.064H331.509c-17.686,0-32.064-14.378-32.064-32.064V76.638c0-17.686,14.379-32.064,32.064-32.064H510.38c17.687,0,32.065,14.379,32.065,32.064V517.923z"/>
			<polyline id="MUTE_BTTN" fill="#CCCCCC" points="294.411,107.409 291.68,107.409 291.68,126.965 294.411,126.965"/>
			<polyline id="LOCK_BTTN" fill="#CCCCCC" points="548.197,216.76 550.928,216.76 550.928,156.657 548.197,156.657"/>
			<g id="VOLUME_BTTN">
				<polyline id="XMLID_269_" fill="#CCCCCC" points="294.411,145.01 291.68,145.01 291.68,181.532 294.411,181.532"/>
				<polyline id="XMLID_268_" fill="#CCCCCC" points="294.411,191.885 291.68,191.885 291.68,228.478 294.411,228.478"/>
			</g>
			
			<linearGradient id="BLACK_FRONT_1_" gradientUnits="userSpaceOnUse" x1="-43.0461" y1="416.9919" x2="451.3042" y2="-77.3584" gradientTransform="matrix(0.7189 0 0 -0.7189 274.1884 419.3685)">
				<stop  offset="0" style="stop-color:#666666"/>
				<stop  offset="1" style="stop-color:#000000"/>
			</linearGradient>
			<path id="BLACK_FRONT" fill="url(#BLACK_FRONT_1_)" d="M542.446,76.638c0-17.686-14.379-32.064-32.065-32.064H331.509c-17.686,0-32.064,14.379-32.064,32.064v441.284c0,17.687,14.379,32.064,32.064,32.064H510.38c17.687,0,32.065-14.378,32.065-32.064V76.638z M450.924,56.868c0,1.726-1.438,3.163-3.163,3.163s-3.163-1.438-3.163-3.163s1.438-3.163,3.163-3.163C449.558,53.776,450.924,55.142,450.924,56.868z M408.148,55.358h28.038c1.223,0,2.157,0.719,2.157,1.798c0,1.078-0.935,1.797-2.157,1.797h-28.038c-1.223,0-2.157-0.719-2.157-1.797C405.99,56.077,406.997,55.358,408.148,55.358zM534.536,516.772c0,12.582-10.496,22.431-23.077,22.431H332.444c-12.581,0-22.215-9.921-22.215-22.431V75.848c0-12.582,9.634-22.647,22.215-22.647h20.705c4.386,0,5.968-0.071,6.255,5.465c0.288,5.751,4.242,8.986,9.563,10.64c1.797,0.575,3.81,0.432,5.751,0.432h3.883h86.775h3.882c1.941,0,3.954,0.216,5.752-0.359c5.319-1.653,9.346-5.033,9.562-10.784c0.287-5.536,1.869-5.393,6.255-5.393h20.489c12.582,0,23.078,10.065,23.078,22.647v440.924H534.536z"/>
			<circle id="CAM" fill="#333333" cx="447.761" cy="56.868" r="3.163"/>
			<path id="PHONE_SPEAKER" fill="#333333" d="M408.148,58.953h28.038c1.223,0,2.157-0.719,2.157-1.797c0-1.079-0.935-1.798-2.157-1.798h-28.038c-1.223,0-2.157,0.719-2.157,1.798C405.99,58.234,406.997,58.953,408.148,58.953z"/>
		</g>
	</g>
</svg>
